<?xml version="1.0" encoding="utf-8"?>
<!-- Generator: Adobe Illustrator 21.0.0, SVG Export Plug-In . SVG Version: 6.00 Build 0)  -->
<svg version="1.1" id="Layer_1" xmlns="http://www.w3.org/2000/svg" xmlns:xlink="http://www.w3.org/1999/xlink" x="0px" y="0px"
	 viewBox="0 0 61.9 70.3" style="enable-background:new 0 0 61.9 70.3;" xml:space="preserve">
<style type="text/css">
	.st0{fill:#EA4D36;}
</style>
<g id="XMLID_93_">
	<path id="XMLID_102_" class="st0" d="M2.1,9.5c0,0,3.3-2.5,4.3-3.3C6.7,6,6.9,5.8,7.2,5.5c0,0.4-0.2,0.7-0.3,1
		c-0.8,3.4-2,6.7-3,10.1c-0.3,0.8-0.5,1.7-0.7,2.5c-0.4,1.7,2.2,2.5,2.7,0.7c0.2-0.7,0.4-1.4,0.6-2c1.3-4,4.7-11.5,6.3-11.4
		c1.6,0.1,0,2.8-0.5,4.1c-1,2.9-2.2,5.7-3.3,8.6c-0.7,1.7,2.1,2.4,2.7,0.7c0.5-1.2,0.9-2.4,1.3-3.5c0.2-0.7,0.5-1.3,0.7-1.9
		c0.8-2.1,1.7-4.1,2.9-5.9c0.6-0.8,1.9-3,3.1-2.6c1.1,0.4-2.1,6-2.7,7.2c-1.1,2.2-2.8,5.6-0.4,7.4c1.3,0.9,3.4,0.1,4.6-0.7
		c1.2-0.8,2.3-1.8,3.4-2.8c0.7,1.9,2.2,3.6,4.3,3.7c2.5,0.1,4.6-1.2,6.1-3c0.1,0.7,0.3,1.2,0.7,1.7c1.4,2.5,5.6,0.7,7.1-1.2
		c1.4-1.9,4-7.4,5.2-10.6c0.1,0,0.4,0,0.5,0c0.6,0.1,1.2,0.1,1.8,0.1c-0.4,0.4-0.7,0.9-1.1,1.4c-1.6,2.2-3.5,5.7-2.8,8.6
		c0.7,2.7,3.3,3.8,5.9,3c1.4-0.4,2.1-1.2,3.3-1.9c1.7-1,3.5-2,5.4-2.7c1.6-0.6,0.9-3.2-0.7-2.5c-2.5,0.9-4.8,2.2-6.9,3.5
		C52.5,17.7,52.2,18,51,18c-1.4,0.1-2-1.4-1.9-2.4c0.4-2.6,2-4.8,3.7-6.8c0.6-0.6,1.2-1.3,2-1.8c1.8-0.9,3.3-2,3.5-3.4
		c-0.1-0.8-0.7-1.3-1.5-1c-1.7,0.6-4.3,2-6.1,2c-1.4,0.1-3,0-3.6-1.1s0-2,0.4-2.6c0.2-0.4,0.8-1.3-0.6-0.8c-1.4,0.6-2.5,1.3-2.8,3.1
		c-0.3,1.7,0.7,3,1.7,3.5c0.4,0.2-2.2,6.2-3.5,8s-2.2,2.6-3.4,2.9c-0.5,0.1-1.1-0.7-1.2-1c-0.3-1.5,0.1-2.7,0.5-4.1
		c0.7-3,2-6.1,3.9-8.8c0.9-1.4-2-1.5-3-0.2c-0.5,0.7,0,0-0.4,0.7C36,2.2,32.9,2,30,3.8c-3,1.9-5.1,5.6-5.6,9.2c0,0.2,0,0.5-0.1,0.7
		c-0.4,1.3-3.3,3-5.1,4c-0.2,0.1-0.7,0.4-0.9-0.1c-0.1-0.4,0.4-1.4,0.7-2.2c1-2.2,2.2-4.3,3.3-6.5c0.7-1.7,1.3-3.5,0.4-5.2
		c-0.8-1.4-2.7-1.5-4-0.9c-0.9,0.4-1.7,1.1-2.5,1.8c-0.3-1.1-0.9-2-2.5-1.8c-1.4,0.1-2.5,1.1-3.5,2.3c0-0.4,0-0.7,0-1
		c-0.1-1.5-1.3-2.4-2.8-2c-1.1,0.3-2,1.3-2.8,2C3.3,5.1,2,6.1,0.7,7C-0.9,8.1,0.4,10.3,2.1,9.5z M28.4,10.5c1.3-2.7,4.3-5.6,7.4-4.4
		c0.1,0.1,0.9,0.5,0.9,1c0.1,0.5-1.5,4.4-2,5.4c-0.4,1.1-0.8,1.9-2.5,3.5s-3.9,1.2-4.6-0.9C27.3,13.5,27.8,11.8,28.4,10.5z"/>
	<path id="XMLID_97_" class="st0" d="M44.2,20.7c-0.7,0-3.1,3.4-6.1,3.4c-1.8,0-3-2-3.7-2s-3.1,2-5.3,2s-4.1-1.6-4.9-1.5
		c-1.7,0.1-4,1.5-5.3,1.5c-2.5,0-3.5-1.6-5.6-1.6s-3.6,1.6-5.2,1.6s-5.1,0-5.1,0c-1.1,0-2,0.9-2,2V49c0,1.1,0.9,2,2,2h56
		c1.1,0,2-0.9,2-2V26c0-1.1-0.9-2-2-2h-2c0,0-4.6,0-6.6,0C46.1,24.1,44.9,20.7,44.2,20.7z M20.8,30c0,0.1,0,1.4-0.4,1.9L9.3,44.5
		h10.5c0.6,0,1,0.4,1,0.9v1.7c0,0.5-0.4,0.9-1,0.9H5.9c-0.6,0-1-0.4-1-0.9v-1.7c0-0.1,0-1.4,0.4-1.8L16.4,31H5.9c-0.6,0-1-0.4-1-0.9
		v-1.7c0-0.5,0.4-0.9,1-0.9h14c0.6,0,1,0.4,1,0.9V30H20.8z M38.8,30c0,0.5-0.4,0.9-1,0.9H26.4v5h5.1c0.6,0,1,0.4,1,0.9v1.7
		c0,0.5-0.4,0.9-1,0.9h-5.1v5h11.4c0.6,0,1,0.4,1,0.9V47c0,0.5-0.4,0.9-1,0.9H23.9c-0.6,0-1-0.4-1-0.9V28.3c0-0.5,0.4-0.9,1-0.9h14
		c0.6,0,1,0.4,1,0.9V30H38.8z M57.1,28.3V30c0,0.5-0.4,0.9-1,0.9H44.7v5h5.1c0.6,0,1,0.4,1,0.9v1.7c0,0.5-0.4,0.9-1,0.9h-5.1v5H56
		c0.6,0,1,0.4,1,0.9V47c0,0.5-0.4,0.9-1,0.9H42c-0.6,0-1-0.4-1-0.9V28.2c0-0.5,0.4-0.9,1-0.9h14C56.6,27.3,57.1,27.8,57.1,28.3z"/>
	<path id="XMLID_94_" class="st0" d="M47.6,55c2.8-0.9,5.9,0.7,8.7,0.6c1.2,0,1.2-1.8,0-1.8c-2.9,0.1-5.6-1.1-8.6-0.7
		c-3.1,0.4-4.4,4-2.2,6.3c1.2,1.2,2.8,1.7,4.4,2.5c1.1,0.4,2.2,1,2.3,2.2c0.1,1.2-0.9,2.1-2,2.7c-1.6,0.9-3.5,1.3-5.6,1.4
		c0.4-0.5,0.7-1.1,0.7-1.7c0.3-3.4-2.8-4.5-5.9-5.1c1.4-1.2,2.2-3,1.3-5c-1.2-2.5-4.6-3.4-7.4-3.3c-3.3,0.2-3.4,3.1-3,5.5
		c0.3,2.1,0.4,4.3-0.1,6.4c-0.2,1-0.5,2-1.2,2.8c-0.8,0.9-2.7,0.8-3.1-0.4c-0.4-1.2,0-2.7,0.1-3.9c0.2-2,0.1-3.9-0.4-5.8
		c-0.9-3.1-4-5.1-7.4-3.9s-2.9,4.6-3,7.4c-0.1,2.1-0.6,4.7-2.5,6.1c-2,1.4-4.5,0.1-5.2-1.9c-1-2.2-1.2-4.7-0.6-7.3
		c0.4-1.6,0.8-3,1.2-4c0.4-1.1-1.4-1.5-1.9-0.5C5.8,54.7,5.3,56,5,57.5c-0.4,2-0.5,3.5-0.3,5.4C5.1,65.7,6,68.4,9,69.5
		c3.3,1.2,5.9-1.4,7-4c0.8-2,0.6-3.7,0.9-4.6c0.1-0.4,6.1-2.8,6.5-2.7s0.7,3.8,0.5,5.5c-0.2,2.4-0.9,5.4,2.1,6.4
		c5.5,1.9,6.3-5.8,6.1-9c0-0.9-0.1-1.8-0.3-2.7c-0.2-1.5-0.5-3.3,1.6-3.4c1.5-0.1,3.3,0.4,4.5,1.2c2.1,1.7,0.4,4.4-2,4.7
		c-1,0.1-1.4,1.6-0.3,1.7c2.4,0.4,6.1,0.2,7.2,2.8c0.7,1.7-1.2,2.6-3.1,2.9c-1,0-2-0.1-2.9-0.1c-1.2-0.1-1.2,1.4-0.3,1.7
		c1,0.3,2.4,0.2,3.7,0.1c3.1-0.2,6.3-0.2,9.2-1.2c1.6-0.6,3.3-1.6,3.8-3.2c0.7-1.7,0.1-3.5-1.3-4.5c-1.4-1-3.3-1.4-4.8-2.3
		C45.9,57.9,45.6,55.5,47.6,55z M17.1,58.7c-0.4-0.2,0.1-2.2,1.4-3.1c1.9-1.2,4.1,0.2,4.2,0.9C22.8,56.7,17.4,58.9,17.1,58.7z"/>
</g>
</svg>
