<?xml version="1.0" encoding="utf-8"?>
<!-- Generator: Adobe Illustrator 21.0.0, SVG Export Plug-In . SVG Version: 6.00 Build 0)  -->
<svg version="1.1" id="Layer_1" xmlns="http://www.w3.org/2000/svg" xmlns:xlink="http://www.w3.org/1999/xlink" x="0px" y="0px"
	 viewBox="0 0 154 70" style="enable-background:new 0 0 154 70;" xml:space="preserve">
<style type="text/css">
	.st0{fill:#CB2729;}
	.st1{fill:#000301;}
</style>
<g>
	<polygon class="st0" points="62.4,12.3 62.3,12.3 58.3,18.1 58.4,18.1 52.9,25.9 52.8,25.9 48.8,31.7 48.9,31.7 43.4,39.5 
		43.3,39.5 39.3,45.3 39.4,45.3 33.9,53.1 33.8,53.1 29.8,58.9 29.8,58.9 24.4,66.7 29.1,70 75.8,3.3 71,0 	"/>
	<polygon class="st0" points="46.6,0 0,66.7 4.7,70 12.5,58.9 25.1,58.9 29.1,53.1 16.5,53.1 22,45.3 34.6,45.3 38.6,39.5 26,39.5 
		31.5,31.7 44.1,31.7 48.1,25.9 35.5,25.9 41,18.1 53.6,18.1 57.6,12.3 45.1,12.3 51.4,3.3 	"/>
	<g>
		<path class="st1" d="M76.9,48.3v4.2H78c1.6,0,2.7-0.5,2.7-2.2c0-1.6-1.2-2-2.7-2H76.9z M76.9,60.6h-3.8V44.9h5.7
			c3.9,0,5.9,2.4,5.9,5.4c0,3-2,5.5-5.9,5.5h-1.8V60.6z"/>
		<path class="st1" d="M88.3,55.4c0,1.3,0.8,2.2,2,2.2c1.2,0,2-1,2-2.2c0-1.3-0.9-2.2-2-2.2C89.1,53.2,88.3,54.1,88.3,55.4
			 M84.7,55.4c0-3.2,2.5-5.5,5.6-5.5c3.1,0,5.6,2.3,5.6,5.5c0,3.2-2.5,5.5-5.6,5.5C87.2,60.9,84.7,58.6,84.7,55.4"/>
		<path class="st1" d="M103.7,53.1h-1.3c-1.5,0-1.9,1.3-1.9,2.7v4.8h-3.6V50.2h3.4v1.7c0.2-1.2,1-1.7,1.7-1.7c0.3,0,1.7,0,1.7,0
			V53.1z"/>
		<path class="st1" d="M109.9,46.5v3.7h2.1v2.9h-2.1v3.8c0,0.6,0.5,0.7,0.9,0.7c0.7,0,1.2-0.1,1.2-0.1v3.1c0,0-1.7,0.1-2.6,0.1
			c-1.7,0-3.1-0.5-3.1-2.6v-5h-1.5v-2.9h1.5v-3.7H109.9z"/>
		<path class="st1" d="M116.3,55.4c0,1.3,0.8,2.2,2,2.2c1.2,0,2-1,2-2.2c0-1.3-0.9-2.2-2-2.2C117.1,53.2,116.3,54.1,116.3,55.4
			 M112.7,55.4c0-3.2,2.5-5.5,5.6-5.5c3.1,0,5.6,2.3,5.6,5.5c0,3.2-2.5,5.5-5.6,5.5C115.2,60.9,112.7,58.6,112.7,55.4"/>
		<path class="st1" d="M126.8,56.4c1.3,0,2.3,1,2.3,2.3c0,1.2-1,2.2-2.3,2.2c-1.2,0-2.2-1-2.2-2.2C124.5,57.4,125.5,56.4,126.8,56.4
			"/>
		<path class="st1" d="M146,39c0.5,0.7,1.6,1.4,3.1,1.4c2.8,0,5-2.3,5-5.6c0-3.2-2.2-5.6-5-5.6c-1.7,0-2.7,0.7-3.1,1.4
			c0,0,0.1-0.2,0.1-1v-0.2h-3.6v14.6h3.6V39z M148,32.6c1.3,0,2.2,1,2.2,2.3c0,1.2-0.9,2.3-2.2,2.3c-1.3,0-2.1-1-2.1-2.3
			C145.9,33.6,146.8,32.6,148,32.6 M136.2,34.3c0,1.6-0.8,2.7-2.4,2.7s-2.4-1.1-2.4-2.7v-10h-3.9v10.6c0,3.1,2.1,5.6,6.2,5.6
			s6.3-2.5,6.3-5.6V24.2h-3.8V34.3z M120.3,32.2c1,0,1.7,0.6,1.9,1.4h-3.8C118.6,32.8,119.4,32.2,120.3,32.2 M126,35.7
			c0-4.5-2.7-6.4-5.7-6.4c-3.2,0-5.6,2.3-5.6,5.6c0,3.2,2.4,5.6,5.7,5.6c2.5,0,4.5-1,5.4-3.5l-3.6-0.6c-0.3,0.6-1,1-1.8,1
			c-1,0-1.8-0.7-1.9-1.5h7.5V35.7z M113.1,24.2h-3.6v16h3.6V24.2z M98.9,33.3c0.8-0.5,2.3-0.9,3.3-0.9c1,0,1.4,0.4,1.4,0.8v0
			c0,0.4-0.3,0.6-0.8,0.6H101c-2.3,0-3.9,1.2-3.9,3.3c0,1.7,1.2,3.4,3.7,3.4c1.3,0,2.3-0.5,2.8-1.2v0.9h3.6v-7.1
			c0-2.3-1.6-3.8-4.8-3.8c-2.1,0-3.8,0.6-4.8,1.2L98.9,33.3z M102.1,38c-0.6,0-1.2-0.4-1.2-1c0-0.6,0.5-0.9,1.1-0.9h0.8
			c0.3,0,0.6-0.1,0.8-0.3v0.7C103.7,37.5,103,38,102.1,38 M90.8,32.6c1,0,1.8,0.7,2,1.7l3.6-0.7c-0.5-2.6-2.8-4.3-5.6-4.3
			c-3.2,0-5.7,2.3-5.7,5.6c0,3.2,2.5,5.6,5.7,5.6c2.8,0,5.1-1.7,5.6-4.3l-3.6-0.7c-0.2,1-1,1.7-2,1.7c-1.2,0-2.1-1-2.1-2.3
			C88.8,33.6,89.6,32.6,90.8,32.6 M84.1,26.3c-1.5-1.6-3.7-2.3-5.8-2.3c-3.1,0-5.5,2-5.5,4.7c0,2,1.2,3.6,3.6,4.6l1.8,0.8
			c1.1,0.5,1.7,1,1.7,1.6c0,0.7-0.5,1.3-1.6,1.3c-1.5,0-3.1-0.8-3.9-1.7l-2.1,2.8c0.9,1,3.2,2.4,6.1,2.4c3.8,0,5.8-2.5,5.8-4.9
			c0-2.2-1.1-3.6-4.1-4.9l-1.9-0.8c-1-0.4-1.1-0.9-1.1-1.3c0-0.5,0.4-1.1,1.5-1.1c1,0,2.3,0.4,3.4,1.6L84.1,26.3z"/>
	</g>
</g>
</svg>
