<?xml version="1.0" encoding="utf-8"?>
<!-- Generator: Adobe Illustrator 21.0.0, SVG Export Plug-In . SVG Version: 6.00 Build 0)  -->
<svg version="1.1" id="Layer_1" xmlns="http://www.w3.org/2000/svg" xmlns:xlink="http://www.w3.org/1999/xlink" x="0px" y="0px"
	 viewBox="0 0 70.3 70.3" style="enable-background:new 0 0 70.3 70.3;" xml:space="preserve">
<style type="text/css">
	.st0{fill:#1D1D1B;}
	.st1{fill:#97CFBD;}
</style>
<g>
	<g>
		<g>
			<g>
				<polygon class="st0" points="24.9,28 26.7,28 26.7,24.3 30.3,24.3 30.3,22.7 26.7,22.7 26.7,20.5 30.9,20.5 30.9,18.9 
					24.9,18.9 				"/>
				<path class="st0" d="M26.9,28.2h-2.1v-9.5h6.4v1.9h-4.2v1.9h3.6v1.9h-3.6V28.2z M25.1,27.9h1.4v-3.7h3.6v-1.2h-3.6v-2.6h4.2
					v-1.2h-5.7V27.9z"/>
			</g>
			<g>
				<polygon class="st0" points="32.8,28 38.8,28 38.8,26.4 34.6,26.4 34.6,24.2 38.2,24.2 38.2,22.6 34.6,22.6 34.6,20.5 
					38.8,20.5 38.8,18.9 32.8,18.9 				"/>
				<path class="st0" d="M39,28.2h-6.4v-9.5H39v1.9h-4.2v1.8h3.6v1.9h-3.6v1.9H39V28.2z M33,27.9h5.7v-1.2h-4.2v-2.6H38v-1.2h-3.6
					v-2.5h4.2v-1.2H33V27.9z"/>
			</g>
			<g>
				<path class="st0" d="M44.3,22.7l-1.1-0.2c-0.4-0.1-0.7-0.2-0.8-0.4c-0.2-0.2-0.3-0.4-0.3-0.7c0-0.6,0.5-1.2,1.4-1.2
					c0.6,0,1.3,0.1,1.9,0.6l1.1-1.1c-0.8-0.8-1.7-1.1-3-1.1c-2,0-3.2,1.1-3.2,2.8c0,0.8,0.2,1.4,0.7,1.8c0.4,0.4,1,0.6,1.8,0.8
					l1.1,0.2c0.4,0.1,0.6,0.2,0.8,0.3c0.2,0.2,0.3,0.4,0.3,0.8c0,0.7-0.6,1.1-1.6,1.1c-0.8,0-1.6-0.2-2.2-0.8l-1.2,1.2
					c0.9,0.9,2,1.2,3.3,1.2c1.9,0,3.4-1,3.4-2.8c0-0.8-0.2-1.5-0.7-1.9C45.7,23,45.2,22.8,44.3,22.7z"/>
				<path class="st0" d="M43.4,28.3c-1.6,0-2.6-0.4-3.5-1.3l-0.1-0.1l1.4-1.4l0.1,0.1c0.5,0.5,1.2,0.7,2.1,0.7c0.7,0,1.4-0.2,1.4-1
					c0-0.2,0-0.5-0.2-0.6c-0.1-0.1-0.3-0.2-0.7-0.3l-1.1-0.2c-0.8-0.1-1.4-0.4-1.9-0.8c-0.5-0.5-0.7-1.1-0.7-1.9
					c0-1.8,1.3-2.9,3.4-2.9c1.3,0,2.3,0.3,3.1,1.1l0.1,0.1l-1.4,1.4l-0.1-0.1c-0.5-0.5-1.2-0.6-1.8-0.6c-0.8,0-1.2,0.4-1.2,1
					c0,0.1,0,0.4,0.2,0.5c0.2,0.2,0.4,0.3,0.8,0.3l1.1,0.2c0.8,0.1,1.4,0.3,1.8,0.8c0.5,0.5,0.8,1.2,0.8,2.1
					C47,27.1,45.5,28.3,43.4,28.3z M40.3,26.9c0.8,0.7,1.7,1,3.1,1c2,0,3.2-1,3.2-2.6c0-0.8-0.2-1.4-0.7-1.8
					c-0.4-0.4-0.9-0.6-1.7-0.7l-1.1-0.2c-0.4-0.1-0.7-0.2-0.9-0.4c-0.2-0.2-0.3-0.5-0.3-0.8c0-0.6,0.4-1.3,1.6-1.3
					c0.6,0,1.3,0.1,1.9,0.6l0.9-0.9c-0.7-0.6-1.5-0.9-2.7-0.9c-1.8,0-3,1-3,2.6c0,0.7,0.2,1.3,0.6,1.7c0.4,0.4,0.9,0.6,1.7,0.7
					l1.1,0.2c0.4,0.1,0.7,0.2,0.9,0.4c0.2,0.2,0.3,0.5,0.3,0.9c0,0.5-0.2,1.3-1.8,1.3c-0.9,0-1.7-0.2-2.2-0.7L40.3,26.9z"/>
			</g>
		</g>
	</g>
	<g>
		<g>
			<path class="st0" d="M27.4,31.6c0,0-0.1,0-0.1,0c0,0-0.1,0-0.1,0h-1.7c-0.1,0-0.2,0-0.2,0c-0.1,0-0.1,0-0.1,0.1
				c0,0,0,0.1-0.1,0.1s0,0.1,0,0.2v3.1c0,0.1,0,0.2,0,0.2c0,0.1,0,0.1,0.1,0.1c0.1,0.1,0.1,0.1,0.2,0.1c0,0,0.1,0,0.1,0
				c0,0,0.1,0,0.1-0.1c0,0,0.1-0.1,0.1-0.1c0-0.1,0-0.1,0-0.2v-1.4h1.4c0,0,0.1,0,0.1,0c0,0,0.1,0,0.1,0c0,0,0.1,0,0.1-0.1
				c0,0,0-0.1,0-0.1c0-0.1,0-0.1,0-0.1c0,0-0.1-0.1-0.1-0.1c0,0-0.1,0-0.1,0c0,0-0.1,0-0.1,0h-1.4V32h1.6c0,0,0.1,0,0.1,0
				c0,0,0.1,0,0.1,0c0,0,0.1,0,0.1-0.1c0,0,0-0.1,0-0.1S27.5,31.7,27.4,31.6C27.4,31.6,27.4,31.6,27.4,31.6z"/>
			<path class="st0" d="M28.8,31.6C28.7,31.5,28.7,31.5,28.8,31.6c-0.1-0.1-0.2-0.1-0.2-0.1c0,0-0.1,0-0.1,0c0,0-0.1,0-0.1,0.1
				c0,0-0.1,0.1-0.1,0.1c0,0.1,0,0.1,0,0.2v3.2c0,0.1,0,0.2,0,0.2c0,0.1,0,0.1,0.1,0.1c0,0,0.1,0,0.1,0.1c0,0,0.1,0,0.1,0
				c0,0,0.1,0,0.1,0c0,0,0.1,0,0.1-0.1c0,0,0.1-0.1,0.1-0.1c0-0.1,0-0.1,0-0.2v-3.2c0-0.1,0-0.2,0-0.2
				C28.8,31.6,28.8,31.6,28.8,31.6z"/>
			<path class="st0" d="M32.4,35.1c0,0-0.1,0-0.1,0s-0.1,0-0.1,0h-1.7v-3.2c0-0.1,0-0.2,0-0.2c0-0.1,0-0.1-0.1-0.1
				c-0.1-0.1-0.1-0.1-0.2-0.1c0,0-0.1,0-0.1,0c0,0-0.1,0-0.1,0.1c0,0-0.1,0.1-0.1,0.1c0,0.1,0,0.1,0,0.2v3.1c0,0.1,0,0.2,0,0.2
				c0,0.1,0,0.1,0.1,0.1c0,0,0.1,0,0.1,0.1c0.1,0,0.1,0,0.2,0h1.8c0,0,0.1,0,0.1,0c0,0,0.1,0,0.1,0c0,0,0.1,0,0.1-0.1
				c0,0,0-0.1,0-0.1C32.5,35.2,32.5,35.2,32.4,35.1C32.5,35.1,32.4,35.1,32.4,35.1z"/>
			<path class="st0" d="M35.7,35.1c0,0-0.1,0-0.1,0s-0.1,0-0.1,0h-1.7v-3.2c0-0.1,0-0.2,0-0.2c0-0.1,0-0.1-0.1-0.1
				c-0.1-0.1-0.1-0.1-0.2-0.1c0,0-0.1,0-0.1,0c0,0-0.1,0-0.1,0.1c0,0-0.1,0.1-0.1,0.1c0,0.1,0,0.1,0,0.2v3.1c0,0.1,0,0.2,0,0.2
				c0,0.1,0,0.1,0.1,0.1c0,0,0.1,0,0.1,0.1c0.1,0,0.1,0,0.2,0h1.8c0,0,0.1,0,0.1,0c0,0,0.1,0,0.1,0c0,0,0.1,0,0.1-0.1
				c0,0,0-0.1,0-0.1C35.8,35.2,35.8,35.2,35.7,35.1C35.7,35.1,35.7,35.1,35.7,35.1z"/>
			<path class="st0" d="M37,31.6C37,31.5,37,31.5,37,31.6c-0.1-0.1-0.2-0.1-0.2-0.1c0,0-0.1,0-0.1,0c0,0-0.1,0-0.1,0.1
				c0,0-0.1,0.1-0.1,0.1c0,0.1,0,0.1,0,0.2v3.2c0,0.1,0,0.2,0,0.2c0,0.1,0,0.1,0.1,0.1c0,0,0.1,0,0.1,0.1c0,0,0.1,0,0.1,0
				c0,0,0.1,0,0.1,0c0,0,0.1,0,0.1-0.1c0,0,0.1-0.1,0.1-0.1c0-0.1,0-0.1,0-0.2v-3.2c0-0.1,0-0.2,0-0.2C37.1,31.6,37.1,31.6,37,31.6z
				"/>
			<path class="st0" d="M41.3,31.6c-0.1-0.1-0.1-0.1-0.2-0.1c-0.1,0-0.1,0-0.1,0c0,0-0.1,0.1-0.1,0.1c0,0,0,0.1,0,0.1
				c0,0,0,0.1,0,0.2l0,2.8l-2-2.9c-0.1-0.1-0.1-0.2-0.2-0.2c0,0-0.1-0.1-0.2-0.1c-0.1,0-0.1,0-0.1,0c0,0-0.1,0-0.1,0
				c0,0,0,0-0.1,0.1c0,0,0,0.1,0,0.1c0,0,0,0.1,0,0.1c0,0,0,0.1,0,0.2v3.2c0,0.1,0,0.2,0,0.2c0,0.1,0,0.1,0.1,0.1
				c0.1,0.1,0.1,0.1,0.2,0.1c0.1,0,0.1,0,0.1,0c0,0,0.1-0.1,0.1-0.1c0,0,0-0.1,0-0.1c0,0,0-0.1,0-0.2l0-2.8l1.9,2.9
				c0,0.1,0.1,0.1,0.1,0.1c0,0,0.1,0.1,0.1,0.1c0,0,0.1,0,0.1,0.1c0,0,0.1,0,0.1,0c0.1,0,0.2,0,0.2-0.1c0.1,0,0.1-0.1,0.1-0.2
				c0-0.1,0-0.2,0-0.3v-3.1c0-0.1,0-0.2,0-0.2C41.3,31.6,41.3,31.6,41.3,31.6z"/>
			<path class="st0" d="M45.8,33.6c0,0-0.1,0-0.1-0.1c-0.1,0-0.1,0-0.2,0h-1c0,0-0.1,0-0.1,0c0,0-0.1,0-0.1,0c0,0-0.1,0-0.1,0.1
				c0,0,0,0.1,0,0.1c0,0.1,0,0.1,0,0.1c0,0,0.1,0.1,0.1,0.1c0,0,0.1,0,0.1,0c0,0,0.1,0,0.1,0h0.9v0.9C45.2,34.9,45,35,44.8,35
				c-0.2,0.1-0.4,0.1-0.6,0.1c-0.2,0-0.4,0-0.5-0.1c-0.2-0.1-0.4-0.2-0.5-0.3c-0.1-0.1-0.2-0.2-0.2-0.3c-0.1-0.1-0.1-0.2-0.1-0.3
				c0-0.1-0.1-0.2-0.1-0.3c0-0.1,0-0.2,0-0.3c0-0.2,0-0.4,0.1-0.6c0.1-0.2,0.2-0.4,0.3-0.5c0.1-0.1,0.3-0.3,0.4-0.3s0.4-0.1,0.6-0.1
				c0.2,0,0.3,0,0.5,0.1c0.1,0,0.2,0.1,0.3,0.2c0.1,0.1,0.2,0.1,0.2,0.2c0.1,0.1,0.1,0.1,0.1,0.2c0.1,0.1,0.1,0.2,0.1,0.2
				c0,0,0.1,0,0.1,0c0.1,0,0.2,0,0.2-0.1c0,0,0.1-0.1,0.1-0.2c0,0,0-0.1-0.1-0.2c0-0.1-0.1-0.2-0.2-0.4c-0.1-0.1-0.3-0.2-0.5-0.3
				c-0.2-0.1-0.5-0.1-0.8-0.1c-0.4,0-0.7,0.1-0.9,0.2c-0.3,0.1-0.5,0.3-0.6,0.5c-0.2,0.2-0.3,0.4-0.4,0.7c-0.1,0.2-0.1,0.5-0.1,0.8
				c0,0.3,0,0.5,0.1,0.8c0.1,0.2,0.2,0.5,0.4,0.6c0.2,0.2,0.4,0.3,0.6,0.4c0.3,0.1,0.6,0.2,0.9,0.2c0.2,0,0.4,0,0.6-0.1
				s0.3-0.1,0.5-0.2c0.1-0.1,0.2-0.1,0.3-0.2c0.1-0.1,0.1-0.1,0.1-0.1c0.1,0,0.1-0.1,0.1-0.1c0-0.1,0-0.1,0-0.2v-0.9
				c0-0.1,0-0.1,0-0.2C45.8,33.6,45.8,33.6,45.8,33.6z"/>
			<path class="st0" d="M27.7,41.5c0,0-0.1,0-0.1,0c0,0-0.1,0-0.1,0h-1.9v-1.4h1.7c0,0,0.1,0,0.1,0c0,0,0.1,0,0.1,0
				c0,0,0.1,0,0.1-0.1c0,0,0-0.1,0-0.1c0-0.1,0-0.1,0-0.1c0,0,0-0.1-0.1-0.1c0,0-0.1,0-0.1,0c0,0-0.1,0-0.1,0h-1.7v-1.3h1.8
				c0,0,0.1,0,0.1,0c0,0,0.1,0,0.1,0c0,0,0.1,0,0.1-0.1c0,0,0-0.1,0-0.1s0-0.1,0-0.1c0,0-0.1,0-0.1-0.1c0,0-0.1,0-0.1,0
				c0,0-0.1,0-0.1,0h-1.9c-0.1,0-0.2,0-0.2,0S25.1,38,25,38c0,0-0.1,0.1-0.1,0.1c0,0.1,0,0.1,0,0.2v3.1c0,0.1,0,0.2,0,0.2
				c0,0,0,0.1,0.1,0.1c0,0,0,0,0.1,0c0,0,0,0,0.1,0c0,0,0.1,0,0.1,0c0,0,0.1,0,0.1,0h2c0,0,0.1,0,0.1,0c0,0,0.1,0,0.1,0
				c0,0,0.1,0,0.1-0.1c0,0,0-0.1,0-0.1C27.8,41.6,27.8,41.6,27.7,41.5C27.7,41.5,27.7,41.5,27.7,41.5z"/>
			<path class="st0" d="M32.9,38.1c0,0-0.1-0.1-0.1-0.1c-0.1,0-0.1,0-0.2,0c-0.1,0-0.2,0-0.2,0c0,0-0.1,0-0.1,0c0,0-0.1,0.1-0.1,0.1
				c0,0,0,0.1-0.1,0.2l-0.8,2.4c0,0.1-0.1,0.2-0.1,0.2c0,0.1,0,0.1,0,0.1c0,0,0,0.1,0,0.1c0,0,0,0.1,0,0.1c0-0.1-0.1-0.2-0.1-0.3
				c0-0.1-0.1-0.2-0.1-0.3l-0.8-2.5c0-0.1-0.1-0.2-0.1-0.2c0,0-0.1-0.1-0.1-0.1c0,0-0.1,0-0.1,0c-0.1,0-0.1,0-0.2,0c0,0-0.1,0-0.1,0
				c0,0-0.1,0-0.1,0c0,0-0.1,0.1-0.1,0.1c0,0.1,0,0.1,0,0.3v3.2c0,0,0,0.1,0,0.1c0,0,0,0.1,0,0.1c0,0,0,0.1,0.1,0.1c0,0,0.1,0,0.1,0
				c0.1,0,0.1,0,0.1,0c0,0,0.1-0.1,0.1-0.1c0,0,0-0.1,0-0.1c0,0,0-0.1,0-0.1v-3l1,3c0,0.1,0.1,0.2,0.1,0.2c0,0.1,0,0.1,0.1,0.1
				c0,0,0.1,0,0.1,0.1c0,0,0.1,0,0.1,0c0,0,0.1,0,0.1,0c0,0,0.1,0,0.1-0.1c0,0,0-0.1,0.1-0.1c0-0.1,0-0.1,0.1-0.2l1-3v3.1
				c0,0,0,0,0,0.1c0,0,0,0.1,0,0.1c0,0,0,0.1,0.1,0.1c0,0,0.1,0,0.1,0c0.1,0,0.1,0,0.1,0c0,0,0.1-0.1,0.1-0.1c0,0,0-0.1,0-0.1
				c0,0,0-0.1,0-0.1v-3.2c0-0.1,0-0.2,0-0.2C32.9,38.1,32.9,38.1,32.9,38.1z"/>
			<path class="st0" d="M36.9,38.2c-0.1-0.1-0.3-0.2-0.4-0.2c-0.2,0-0.3,0-0.5,0h-0.9c-0.1,0-0.2,0-0.3,0c-0.1,0-0.1,0-0.1,0
				c0,0-0.1,0.1-0.1,0.1c0,0.1,0,0.1,0,0.3v3.1c0,0.1,0,0.2,0,0.2c0,0.1,0,0.1,0.1,0.1c0.1,0.1,0.1,0.1,0.2,0.1c0.1,0,0.1,0,0.1,0
				c0,0,0.1-0.1,0.1-0.1c0,0,0-0.1,0-0.1c0,0,0-0.1,0-0.2v-1.3H36c0.1,0,0.2,0,0.3,0c0.1,0,0.2,0,0.2,0c0.1,0,0.1,0,0.2-0.1
				c0,0,0.1,0,0.1-0.1c0.1,0,0.2-0.1,0.2-0.2c0.1-0.1,0.1-0.2,0.2-0.2c0-0.1,0.1-0.2,0.1-0.3s0-0.2,0-0.3c0-0.2,0-0.4-0.1-0.5
				C37.2,38.4,37.1,38.3,36.9,38.2z M36.7,39.5c-0.1,0.1-0.2,0.2-0.3,0.2c-0.1,0-0.2,0.1-0.3,0.1c-0.1,0-0.2,0-0.3,0h-0.8v-1.5h0.8
				c0.1,0,0.1,0,0.2,0c0.1,0,0.1,0,0.2,0c0.1,0,0.1,0,0.2,0.1c0.1,0,0.1,0.1,0.2,0.1c0.1,0.1,0.1,0.2,0.1,0.2c0,0.1,0,0.2,0,0.3
				C36.8,39.3,36.8,39.4,36.7,39.5z"/>
			<path class="st0" d="M41.5,38c0,0-0.1-0.1-0.1-0.1c0,0-0.1,0-0.2,0h-2.3c-0.1,0-0.1,0-0.2,0c0,0-0.1,0-0.1,0.1c0,0,0,0,0,0.1
				c0,0,0,0.1,0,0.1c0,0,0,0.1,0,0.1c0,0,0,0,0,0.1c0,0,0.1,0,0.1,0.1c0,0,0.1,0,0.2,0h0.9v3.2c0,0.1,0,0.2,0,0.2
				c0,0.1,0,0.1,0.1,0.1C39.9,42,40,42,40.1,42c0,0,0.1,0,0.1,0c0,0,0.1,0,0.1-0.1c0,0,0.1-0.1,0.1-0.1c0-0.1,0-0.1,0-0.2v-3.2h0.9
				c0.1,0,0.1,0,0.2,0c0,0,0.1,0,0.1-0.1c0,0,0,0,0-0.1c0,0,0-0.1,0-0.1C41.6,38.1,41.6,38.1,41.5,38C41.6,38.1,41.6,38,41.5,38z"/>
			<path class="st0" d="M45.6,37.9C45.5,37.9,45.5,37.9,45.6,37.9c-0.1,0-0.1,0-0.1,0.1c0,0,0,0-0.1,0.1c0,0-0.1,0.1-0.1,0.1l-1,1.6
				l-1-1.6c0-0.1-0.1-0.1-0.1-0.1c0,0,0-0.1-0.1-0.1c0,0,0,0-0.1,0c0,0-0.1,0-0.1,0c-0.1,0-0.1,0-0.2,0.1c0,0.1-0.1,0.1-0.1,0.2
				c0,0,0,0.1,0,0.1c0,0,0.1,0.1,0.1,0.2l1.1,1.8v1.3c0,0.1,0,0.2,0,0.2c0,0.1,0,0.1,0.1,0.1c0.1,0.1,0.1,0.1,0.2,0.1
				c0.1,0,0.1,0,0.2-0.1c0,0,0.1-0.1,0.1-0.1c0-0.1,0-0.1,0-0.2v-1.3l1.2-1.8c0-0.1,0.1-0.1,0.1-0.2c0,0,0-0.1,0-0.1
				c0-0.1,0-0.1-0.1-0.2C45.7,37.9,45.6,37.9,45.6,37.9z"/>
			<path class="st0" d="M27.6,46.4c0-0.1-0.1-0.1-0.1-0.2s-0.1-0.1-0.2-0.2c-0.1,0-0.1-0.1-0.2-0.1c-0.1,0-0.1-0.1-0.2-0.1
				c-0.1,0-0.2-0.1-0.3-0.1c-0.1,0-0.3-0.1-0.4-0.1c-0.1,0-0.2,0-0.3-0.1c-0.1,0-0.2-0.1-0.3-0.1c-0.1,0-0.2-0.1-0.2-0.2
				c-0.1-0.1-0.1-0.2-0.1-0.3c0-0.1,0-0.2,0.1-0.2c0-0.1,0.1-0.1,0.2-0.2c0.1-0.1,0.2-0.1,0.3-0.1c0.1,0,0.2-0.1,0.3-0.1
				c0.1,0,0.2,0,0.3,0c0.1,0,0.2,0.1,0.3,0.1c0.1,0.1,0.1,0.1,0.2,0.2c0,0.1,0.1,0.1,0.1,0.2c0,0.1,0,0.1,0.1,0.2
				c0,0.1,0.1,0.1,0.2,0.1c0.1,0,0.1,0,0.2-0.1c0-0.1,0.1-0.1,0.1-0.2c0-0.1,0-0.1,0-0.2c0-0.1-0.1-0.1-0.1-0.2
				c-0.1-0.1-0.1-0.2-0.2-0.3c-0.1-0.1-0.2-0.1-0.3-0.2c-0.1,0-0.2-0.1-0.3-0.1c-0.1,0-0.2,0-0.3,0c-0.2,0-0.3,0-0.5,0.1
				c-0.2,0-0.3,0.1-0.4,0.2c-0.1,0.1-0.2,0.2-0.3,0.3s-0.1,0.3-0.1,0.5c0,0.1,0,0.2,0,0.3c0,0.1,0.1,0.2,0.1,0.2
				c0,0.1,0.1,0.1,0.1,0.2c0,0,0.1,0.1,0.1,0.1c0.1,0,0.1,0.1,0.2,0.1c0.1,0,0.1,0.1,0.2,0.1c0.1,0,0.2,0.1,0.3,0.1
				c0.1,0,0.3,0.1,0.5,0.1c0.1,0,0.2,0,0.2,0.1c0.1,0,0.2,0.1,0.3,0.1c0.1,0.1,0.2,0.1,0.2,0.2c0.1,0.1,0.1,0.2,0.1,0.3
				c0,0.1,0,0.2-0.1,0.3c-0.1,0.1-0.1,0.2-0.2,0.2c-0.1,0.1-0.2,0.1-0.3,0.1c-0.1,0-0.2,0-0.4,0c-0.2,0-0.3,0-0.4-0.1
				c-0.1,0-0.2-0.1-0.3-0.2c-0.1-0.1-0.1-0.1-0.2-0.2c0-0.1-0.1-0.1-0.1-0.2c0-0.1-0.1-0.2-0.1-0.3c0-0.1-0.1-0.1-0.2-0.1
				c-0.1,0-0.1,0-0.2,0.1c0,0-0.1,0.1-0.1,0.2c0,0.1,0,0.2,0.1,0.4c0.1,0.1,0.1,0.3,0.3,0.4c0.1,0.1,0.2,0.1,0.2,0.2
				c0.1,0,0.2,0.1,0.3,0.1c0.1,0,0.2,0,0.3,0.1c0.1,0,0.2,0,0.3,0c0.2,0,0.5,0,0.6-0.1c0.2-0.1,0.3-0.2,0.5-0.3
				c0.1-0.1,0.2-0.2,0.3-0.4c0.1-0.1,0.1-0.3,0.1-0.5c0-0.1,0-0.1,0-0.2C27.7,46.6,27.7,46.5,27.6,46.4z"/>
			<path class="st0" d="M30.8,44.3c-0.1-0.1-0.3-0.2-0.4-0.2c-0.2,0-0.3,0-0.5,0h-0.9c-0.1,0-0.2,0-0.3,0c-0.1,0-0.1,0-0.1,0
				c0,0-0.1,0.1-0.1,0.1c0,0.1,0,0.1,0,0.3v3.1c0,0.1,0,0.2,0,0.2c0,0.1,0,0.1,0.1,0.1c0.1,0.1,0.1,0.1,0.2,0.1c0.1,0,0.1,0,0.1,0
				c0,0,0.1-0.1,0.1-0.1c0,0,0-0.1,0-0.1c0,0,0-0.1,0-0.2v-1.3h0.9c0.1,0,0.2,0,0.3,0c0.1,0,0.2,0,0.2,0c0.1,0,0.1,0,0.2-0.1
				c0,0,0.1,0,0.1-0.1c0.1,0,0.2-0.1,0.2-0.2c0.1-0.1,0.1-0.2,0.2-0.2c0-0.1,0.1-0.2,0.1-0.3s0-0.2,0-0.3c0-0.2,0-0.4-0.1-0.5
				C31.1,44.5,30.9,44.4,30.8,44.3z M30.6,45.6c-0.1,0.1-0.2,0.2-0.3,0.2c-0.1,0-0.2,0.1-0.3,0.1c-0.1,0-0.2,0-0.3,0H29v-1.5h0.8
				c0.1,0,0.1,0,0.2,0c0.1,0,0.1,0,0.2,0c0.1,0,0.1,0,0.2,0.1c0.1,0,0.1,0.1,0.2,0.1c0.1,0.1,0.1,0.2,0.1,0.2c0,0.1,0,0.2,0,0.3
				C30.7,45.4,30.7,45.5,30.6,45.6z"/>
			<path class="st0" d="M35.1,47.5l-1.3-3.1c0-0.1-0.1-0.1-0.1-0.2c0-0.1-0.1-0.1-0.1-0.2c0,0-0.1-0.1-0.1-0.1c0,0-0.1,0-0.1,0
				c-0.1,0-0.1,0-0.2,0c0,0-0.1,0-0.1,0.1c0,0-0.1,0.1-0.1,0.1c0,0.1-0.1,0.1-0.1,0.2l-1.3,3.1c0,0.1,0,0.1-0.1,0.2c0,0,0,0.1,0,0.1
				c0,0.1,0,0.1,0.1,0.2c0,0,0.1,0.1,0.2,0.1c0.1,0,0.2,0,0.2-0.1c0-0.1,0.1-0.1,0.1-0.2l0.3-0.9h1.8l0.4,0.9c0,0.1,0.1,0.2,0.1,0.3
				c0,0.1,0.1,0.1,0.2,0.1c0.1,0,0.1,0,0.2-0.1c0-0.1,0.1-0.1,0.1-0.2c0,0,0-0.1,0-0.1C35.1,47.6,35.1,47.6,35.1,47.5z M32.6,46.4
				l0.7-1.9l0.7,1.9H32.6z"/>
			<path class="st0" d="M38.9,46.6c0,0-0.1-0.1-0.2-0.1c-0.1,0-0.1,0-0.2,0.1c0,0-0.1,0.1-0.1,0.2c-0.1,0.3-0.2,0.5-0.4,0.6
				c-0.2,0.2-0.4,0.2-0.7,0.2c-0.1,0-0.3,0-0.4-0.1c-0.2,0-0.3-0.1-0.4-0.2c-0.1-0.1-0.2-0.3-0.3-0.5c-0.1-0.2-0.1-0.5-0.1-0.8
				s0-0.6,0.1-0.8c0.1-0.2,0.2-0.4,0.3-0.5c0.1-0.1,0.3-0.2,0.4-0.3c0.2,0,0.3-0.1,0.4-0.1c0.1,0,0.2,0,0.3,0c0.1,0,0.2,0.1,0.2,0.1
				c0.1,0.1,0.2,0.1,0.2,0.2c0.1,0.1,0.1,0.2,0.2,0.3c0,0,0,0.1,0.1,0.1c0,0,0,0.1,0.1,0.1c0,0,0.1,0.1,0.1,0.1c0,0,0.1,0,0.1,0
				c0.1,0,0.1,0,0.2-0.1c0-0.1,0.1-0.1,0.1-0.2c0,0,0-0.1,0-0.2c0-0.1-0.1-0.1-0.1-0.2c0-0.1-0.1-0.2-0.2-0.3
				c-0.1-0.1-0.2-0.2-0.3-0.2c-0.1-0.1-0.3-0.1-0.4-0.2c-0.2,0-0.3-0.1-0.5-0.1c-0.3,0-0.5,0-0.7,0.1c-0.2,0.1-0.4,0.2-0.6,0.4
				c-0.2,0.2-0.3,0.4-0.4,0.6c-0.1,0.3-0.1,0.5-0.1,0.8c0,0.3,0,0.6,0.1,0.9c0.1,0.3,0.2,0.5,0.4,0.7c0.1,0.1,0.2,0.2,0.3,0.2
				c0.1,0.1,0.2,0.1,0.3,0.1c0.1,0,0.2,0.1,0.3,0.1c0.1,0,0.2,0,0.3,0c0.3,0,0.5-0.1,0.7-0.2c0.2-0.1,0.4-0.2,0.5-0.4
				c0.1-0.1,0.2-0.3,0.3-0.4c0.1-0.1,0.1-0.3,0.1-0.3C39,46.7,39,46.6,38.9,46.6z"/>
			<path class="st0" d="M42.4,47.6c0,0-0.1,0-0.1,0c0,0-0.1,0-0.1,0h-1.9v-1.4H42c0,0,0.1,0,0.1,0c0,0,0.1,0,0.1,0
				c0,0,0.1,0,0.1-0.1c0,0,0-0.1,0-0.1c0-0.1,0-0.1,0-0.1c0,0,0-0.1-0.1-0.1c0,0-0.1,0-0.1,0c0,0-0.1,0-0.1,0h-1.7v-1.3h1.8
				c0,0,0.1,0,0.1,0c0,0,0.1,0,0.1,0c0,0,0.1,0,0.1-0.1c0,0,0-0.1,0-0.1s0-0.1,0-0.1c0,0-0.1,0-0.1-0.1c0,0-0.1,0-0.1,0
				c0,0-0.1,0-0.1,0h-1.9c-0.1,0-0.2,0-0.2,0s-0.1,0-0.1,0.1c0,0-0.1,0.1-0.1,0.1c0,0.1,0,0.1,0,0.2v3.1c0,0.1,0,0.2,0,0.2
				c0,0,0,0.1,0.1,0.1c0,0,0,0,0.1,0c0,0,0,0,0.1,0c0,0,0.1,0,0.1,0c0,0,0.1,0,0.1,0h2c0,0,0.1,0,0.1,0c0,0,0.1,0,0.1,0
				c0,0,0.1,0,0.1-0.1c0,0,0-0.1,0-0.1C42.6,47.7,42.6,47.7,42.4,47.6C42.5,47.6,42.5,47.6,42.4,47.6z"/>
			<path class="st0" d="M45.9,46.4c0-0.1-0.1-0.1-0.1-0.2s-0.1-0.1-0.2-0.2c-0.1,0-0.1-0.1-0.2-0.1c-0.1,0-0.1-0.1-0.2-0.1
				c-0.1,0-0.2-0.1-0.3-0.1c-0.1,0-0.3-0.1-0.4-0.1c-0.1,0-0.2,0-0.3-0.1c-0.1,0-0.2-0.1-0.3-0.1c-0.1,0-0.2-0.1-0.2-0.2
				c-0.1-0.1-0.1-0.2-0.1-0.3c0-0.1,0-0.2,0.1-0.2c0-0.1,0.1-0.1,0.2-0.2c0.1-0.1,0.2-0.1,0.3-0.1c0.1,0,0.2-0.1,0.3-0.1
				c0.1,0,0.2,0,0.3,0c0.1,0,0.2,0.1,0.3,0.1c0.1,0.1,0.1,0.1,0.2,0.2c0,0.1,0.1,0.1,0.1,0.2c0,0.1,0,0.1,0.1,0.2
				c0,0.1,0.1,0.1,0.2,0.1c0.1,0,0.1,0,0.2-0.1c0-0.1,0.1-0.1,0.1-0.2c0-0.1,0-0.1,0-0.2c0-0.1-0.1-0.1-0.1-0.2
				c-0.1-0.1-0.1-0.2-0.2-0.3c-0.1-0.1-0.2-0.1-0.3-0.2C45.1,44,45,44,44.8,44s-0.2,0-0.3,0c-0.2,0-0.3,0-0.5,0.1
				c-0.2,0-0.3,0.1-0.4,0.2c-0.1,0.1-0.2,0.2-0.3,0.3s-0.1,0.3-0.1,0.5c0,0.1,0,0.2,0,0.3c0,0.1,0.1,0.2,0.1,0.2
				c0,0.1,0.1,0.1,0.1,0.2c0,0,0.1,0.1,0.1,0.1c0.1,0,0.1,0.1,0.2,0.1c0.1,0,0.1,0.1,0.2,0.1c0.1,0,0.2,0.1,0.3,0.1
				c0.1,0,0.3,0.1,0.5,0.1c0.1,0,0.2,0,0.2,0.1c0.1,0,0.2,0.1,0.3,0.1c0.1,0.1,0.2,0.1,0.2,0.2s0.1,0.2,0.1,0.3c0,0.1,0,0.2-0.1,0.3
				c-0.1,0.1-0.1,0.2-0.2,0.2c-0.1,0.1-0.2,0.1-0.3,0.1c-0.1,0-0.2,0-0.4,0c-0.2,0-0.3,0-0.4-0.1c-0.1,0-0.2-0.1-0.3-0.2
				c-0.1-0.1-0.1-0.1-0.2-0.2c0-0.1-0.1-0.1-0.1-0.2c0-0.1-0.1-0.2-0.1-0.3c0-0.1-0.1-0.1-0.2-0.1c-0.1,0-0.1,0-0.2,0.1
				c0,0-0.1,0.1-0.1,0.2c0,0.1,0,0.2,0.1,0.4c0.1,0.1,0.1,0.3,0.3,0.4c0.1,0.1,0.2,0.1,0.2,0.2c0.1,0,0.2,0.1,0.3,0.1
				c0.1,0,0.2,0,0.3,0.1c0.1,0,0.2,0,0.3,0c0.2,0,0.5,0,0.6-0.1c0.2-0.1,0.3-0.2,0.5-0.3c0.1-0.1,0.2-0.2,0.3-0.4
				C46,47.2,46,47,46,46.8c0-0.1,0-0.1,0-0.2C46,46.6,45.9,46.5,45.9,46.4z"/>
		</g>
	</g>
	<g>
		<path class="st1" d="M15.4,6c-9,6.1-15,16.3-15.4,27.9l14.6,7.4L15.4,6z"/>
		<path class="st0" d="M69.9,40.2l-12.3-8.9l-4,33.7C62.3,59.7,68.4,50.7,69.9,40.2z"/>
		<path class="st0" d="M52,4.3C47,1.6,41.3,0,35.1,0c-5.3,0-10.3,1.2-14.8,3.3l0.1,15.3L52,4.3z"/>
		<path class="st0" d="M17.8,65.8c5.1,2.9,11,4.6,17.3,4.6c4.7,0,9.1-0.9,13.2-2.6l1.8-15.3L17.8,65.8z"/>
		<path class="st0" d="M57,7.6l-13.1,6.6l26.4,20.2C70.1,23.5,64.9,13.9,57,7.6z"/>
		<path class="st0" d="M0.3,39.6C1.5,49,6.4,57.3,13.5,62.8l18.8-8.7L0.3,39.6z"/>
	</g>
</g>
</svg>
